<?xml version="1.0" standalone="yes"?>
<svg xmlns="http://www.w3.org/2000/svg" width="160" height="160">
<path style="fill:#ffffff; stroke:none;" d="M0 0L0 160L160 160L160 0L0 0z"/>
<path style="fill:#fa8432; stroke:none;" d="M126 63L127 64L126 63z"/>
<path style="fill:#fcc963; stroke:none;" d="M126 64L127 65L126 64z"/>
<path style="fill:#fee0a7; stroke:none;" d="M128 64L129 67L130 67L128 64z"/>
<path style="fill:#fcc963; stroke:none;" d="M129.667 64.3333L130.333 64.6667L129.667 64.3333z"/>
<path style="fill:#fee0a7; stroke:none;" d="M131.333 64.6667L131.667 65.3333L131.333 64.6667M125 65L125 68L126 68L127 65L125 65z"/>
<path style="fill:#fcc963; stroke:none;" d="M128 65L129 66L128 65z"/>
<path style="fill:#ffffff; stroke:none;" d="M130 65L131 66L130 65z"/>
<path style="fill:#fcc963; stroke:none;" d="M125 66L126 67L125 66M130 66L128 67L128 68L130 66z"/>
<path style="fill:#fee0a7; stroke:none;" d="M133 66L132 69L133 70L136 67L135 67L134 69L133 66z"/>
<path style="fill:#ffffff; stroke:none;" d="M129 67L130 68L129 67z"/>
<path style="fill:#fcc963; stroke:none;" d="M133.667 67.3333L134.333 67.6667L133.667 67.3333z"/>
<path style="fill:#fee0a7; stroke:none;" d="M130 68L131 69L130 68z"/>
<path style="fill:#ffffff; stroke:none;" d="M134 68L135 69L134 68z"/>
<path style="fill:#fcc963; stroke:none;" d="M131 69L134 71L134 70L131 69z"/>
<path style="fill:#ffffff; stroke:none;" d="M132 69L133 70L132 69z"/>
<path style="fill:#fee0a7; stroke:none;" d="M131 70L132 71L131 70M136 70L136 72L138 70L136 70M134 71L135 72L134 71z"/>
<path style="fill:#fcc963; stroke:none;" d="M135 71L136 72L135 71z"/>
<path style="fill:#fee0a7; stroke:none;" d="M25 72L25 73L28 73L25 72M48 72L49 73L48 72M69 72L68 86L69 86L71 73L69 72M72 76L73 76L73 73L83 73C78.8208 71.2463 73.5814 71.2352 72 76M85 72L85 73L88 73L85 72M94 84L95 84L95 73C99.3917 73.4687 104.347 71.9119 107 76C108.103 71.0896 98.3346 70.6958 95.5139 73.0779C92.9456 75.2469 94 81.0118 94 84M121 72C119.921 75.6493 121.202 81.562 118.977 84.6235C114.792 90.3827 114.001 77.8346 114 76L113 76C113 78.7122 114.592 93.57 119.972 85.6775C122.102 82.5537 121 76.6097 121 73L123 73L123 87L124 87L127 73L121 72z"/>
<path style="fill:#fcc963; stroke:none;" d="M134 72L136 75L134 72z"/>
<path style="fill:#fee0a7; stroke:none;" d="M138.333 72.6667L138.667 73.3333L138.333 72.6667z"/>
<path style="fill:#fcc963; stroke:none;" d="M25 73L26 74L25 73z"/>
<path style="fill:#fecf40; stroke:none;" d="M26 73L32 91L38 77L34 79L26 73z"/>
<path style="fill:#fee0a7; stroke:none;" d="M29 73L30 74L29 73M45 73L46 74L45 73z"/>
<path style="fill:#fecf40; stroke:none;" d="M46.044 73.7461C36.0676 77.6633 42.0914 93.9899 52.811 89.2577C61.5763 85.3882 55.5739 70.0043 46.044 73.7461z"/>
<path style="fill:#fee0a7; stroke:none;" d="M52 73L53 74L52 73z"/>
<path style="fill:#fecf40; stroke:none;" d="M69 73C69 75.4137 68.6936 93.4986 62.5833 85.9722C59.8448 82.5991 64.0438 78.0122 59 76C59 81.3211 63.605 99.0391 70.821 86.8519C73.0318 83.118 72 77.1735 72 73L69 73z"/>
<path style="fill:#fa8432; stroke:none;" d="M73 73L73 76L83 76L83 73L73 73z"/>
<path style="fill:#fcc963; stroke:none;" d="M83 73L84 77L85 77L85 73L83 73z"/>
<path style="fill:#fa8432; stroke:none;" d="M85 73L84 80L88 80L88 73L85 73M95 73L95 84L84 85L85 91L87 91L88 90L87 88L95 87L95 91L98 91L98 73L95 73z"/>
<path style="fill:#fecf40; stroke:none;" d="M99 73C99 78.5476 97.0632 87.4396 102 91L102 83C105.363 83 108.204 83.7159 109 80L103 81L102 76L107 76L107 73L99 73M121 73C121 76.5185 121.91 81.7142 119.972 84.8326C115.07 92.7194 113.002 78.927 113 76L111 76C111 80.403 114.531 98.8329 121.972 87.6821C124.337 84.1388 123 77.0947 123 73L121 73M125 73L125 84C128.825 81.5205 128 77.1924 128 73L125 73z"/>
<path style="fill:#fee0a7; stroke:none;" d="M136.333 73.6667L136.667 74.3333L136.333 73.6667z"/>
<path style="fill:#fcc963; stroke:none;" d="M137 73L138 74L137 73z"/>
<path style="fill:#fee0a7; stroke:none;" d="M43 74L44 75L43 74M54 74L55 75L54 74z"/>
<path style="fill:#fcc963; stroke:none;" d="M87 74L87 79L88 79L87 74z"/>
<path style="fill:#ffffff; stroke:none;" d="M98 74L98 89L99 89L98 74z"/>
<path style="fill:#fee0a7; stroke:none;" d="M134 74L135 75L134 74M26 75L27 76L26 75M42 75L43 76L42 75M55 75L56 76L55 75M137 75L135 78L135 79L140 75L137 75z"/>
<path style="fill:#fcc963; stroke:none;" d="M138 75L139 76L138 75z"/>
<path style="fill:#fee0a7; stroke:none;" d="M27 76L28 77L27 76M31 76L32 77L31 76z"/>
<path style="fill:#fcc963; stroke:none;" d="M35 76L35 77L39 77L35 76z"/>
<path style="fill:#fee0a7; stroke:none;" d="M41 76L42 77L41 76M46 76L47 77L46 76z"/>
<path style="fill:#ffffff; stroke:none;" d="M47.2276 76.8009C41.5476 78.8671 44.6308 88.8434 50.7724 86.3773C56.2838 84.1643 52.948 74.7201 47.2276 76.8009z"/>
<path style="fill:#fee0a7; stroke:none;" d="M51 76L52 77L51 76M58 76L58 87L59 87L58 76z"/>
<path style="fill:#fcc963; stroke:none;" d="M61 76L62 77L61 76z"/>
<path style="fill:#fee0a7; stroke:none;" d="M102 76L103 77L102 76z"/>
<path style="fill:#fcc963; stroke:none;" d="M110 76L110 80L111 80L110 76M135 78L138 77L135 78M139.333 76.6667L139.667 77.3333L139.333 76.6667z"/>
<path style="fill:#fee0a7; stroke:none;" d="M32 77L33 78L32 77M34 77L35 78L34 77M38 77L39 78L38 77z"/>
<path style="fill:#fcc963; stroke:none;" d="M41 77L42 78L41 77z"/>
<path style="fill:#fee0a7; stroke:none;" d="M52 77L53 78L52 77M56 77L57 78L56 77z"/>
<path style="fill:#ffffff; stroke:none;" d="M136 77L137 78L136 77z"/>
<path style="fill:#fee0a7; stroke:none;" d="M33 78L34 79L33 78M37 78L38 79L37 78M40 78L40 81L41 81L40 78M44 78L45 79L44 78M53 78L54 79L53 78z"/>
<path style="fill:#fcc963; stroke:none;" d="M61 78L62 79L61 78M84 78L85 79L84 78z"/>
<path style="fill:#fee0a7; stroke:none;" d="M102 78L103 79L102 78M29 79L30 80L29 79M76 79L77 80L76 79z"/>
<path style="fill:#fa8432; stroke:none;" d="M77 79L77 91L80 91C80 86.5145 80.9467 81.8463 77 79z"/>
<path style="fill:#fcc963; stroke:none;" d="M78.6667 79.3333L79.3333 79.6667L78.6667 79.3333z"/>
<path style="fill:#fee0a7; stroke:none;" d="M30 80L31 81L30 80M36 80L37 81L36 80M43 80L43 83L44 83L43 80z"/>
<path style="fill:#fcc963; stroke:none;" d="M48 80L47 82L48 80z"/>
<path style="fill:#fee0a7; stroke:none;" d="M49 80L50 83L47 82L47 83L50 84L51 83L49 80z"/>
<path style="fill:#fcc963; stroke:none;" d="M76 80L76 90L77 90L76 80M84 80L84 81L87 81L84 80z"/>
<path style="fill:#fee0a7; stroke:none;" d="M87 80L88 81L87 80z"/>
<path style="fill:#fcc963; stroke:none;" d="M103.667 80.3333L104.333 80.6667L103.667 80.3333M107 80L108 81L107 80z"/>
<path style="fill:#fee0a7; stroke:none;" d="M109 80L109 83L111 83L111 80L109 80M35 81L36 82L35 81z"/>
<path style="fill:#fcc963; stroke:none;" d="M40.3333 81.6667L40.6667 82.3333L40.3333 81.6667z"/>
<path style="fill:#fecf40; stroke:none;" d="M48 81L48 83L50 83L50 81L48 81z"/>
<path style="fill:#fee0a7; stroke:none;" d="M54 81L55 82L54 81M31 82L31 91L32 91L31 82z"/>
<path style="fill:#fcc963; stroke:none;" d="M54 82L55 83L54 82z"/>
<path style="fill:#fee0a7; stroke:none;" d="M40.3333 83.6667L40.6667 84.3333L40.3333 83.6667z"/>
<path style="fill:#fcc963; stroke:none;" d="M43 83L44 84L43 83z"/>
<path style="fill:#fee0a7; stroke:none;" d="M102 83L102 84L109 84L102 83z"/>
<path style="fill:#fcc963; stroke:none;" d="M110 83L110 86L111 86L110 83M127 83L128 84L127 83z"/>
<path style="fill:#fee0a7; stroke:none;" d="M53 84L54 85L53 84z"/>
<path style="fill:#fcc963; stroke:none;" d="M61 84L62 85L61 84M84 84L85 85L84 84z"/>
<path style="fill:#fee0a7; stroke:none;" d="M44 85L45 86L44 85M102 85L102 90L103 90L102 85M41 86L42 87L41 86M45 86L46 87L45 86M52 86L53 87L52 86M56 86L57 87L56 86M62 86L63 87L62 86z"/>
<path style="fill:#fcc963; stroke:none;" d="M71 86L72 87L71 86M84 86L85 87L84 86z"/>
<path style="fill:#fee0a7; stroke:none;" d="M110 86L111 87L110 86M47 87L47 88L51 88L47 87z"/>
<path style="fill:#fcc963; stroke:none;" d="M55 87L56 88L55 87M59 87L60 88L59 87M63 87L64 88L63 87z"/>
<path style="fill:#fee0a7; stroke:none;" d="M64 87L64 88L67 88L64 87M71 87L72 88L71 87M88 87L89 88L88 87z"/>
<path style="fill:#fcc963; stroke:none;" d="M89 87L89 88L93 88L89 87z"/>
<path style="fill:#fee0a7; stroke:none;" d="M93 87L94 91L95 91L93 87z"/>
<path style="fill:#fcc963; stroke:none;" d="M94 87L95 88L94 87z"/>
<path style="fill:#fee0a7; stroke:none;" d="M124 91L125 91L125 88L134 91C135.298 85.2201 125.557 86.3092 124 91z"/>
<path style="fill:#fcc963; stroke:none;" d="M70 88L71 89L70 88M84 88L85 89L84 88M87 88L88 89L87 88z"/>
<path style="fill:#fee0a7; stroke:none;" d="M111 88L112 89L111 88M122 88L123 89L122 88z"/>
<path style="fill:#fecf40; stroke:none;" d="M125 91L134 91C133.065 86.6382 125.935 86.6381 125 91z"/>
<path style="fill:#fee0a7; stroke:none;" d="M44 89L45 90L44 89M53 89L54 90L53 89M69 89L70 90L69 89M98 89L99 90L98 89M112 89L113 90L112 89M121 89L122 90L121 89z"/>
<path style="fill:#fcc963; stroke:none;" d="M33.6667 90.3333L34.3333 90.6667L33.6667 90.3333z"/>
<path style="fill:#fee0a7; stroke:none;" d="M46 90L47 91L46 90z"/>
<path style="fill:#fcc963; stroke:none;" d="M47 90L47 91L50 91L47 90z"/>
<path style="fill:#fee0a7; stroke:none;" d="M50.6667 90.3333L51.3333 90.6667L50.6667 90.3333M62.6667 90.3333L63.3333 90.6667L62.6667 90.3333z"/>
<path style="fill:#fcc963; stroke:none;" d="M64 90L64 91L67 91L64 90z"/>
<path style="fill:#fee0a7; stroke:none;" d="M67 90L68 91L67 90M76 90L77 91L76 90z"/>
<path style="fill:#fcc963; stroke:none;" d="M84 90L85 91L84 90M87 90L88 91L87 90M99.6667 90.3333L100.333 90.6667L99.6667 90.3333z"/>
<path style="fill:#fee0a7; stroke:none;" d="M114.667 90.3333L115.333 90.6667L114.667 90.3333z"/>
<path style="fill:#fcc963; stroke:none;" d="M116.667 90.3333L117.333 90.6667L116.667 90.3333z"/>
<path style="fill:#fee0a7; stroke:none;" d="M118.667 90.3333L119.333 90.6667L118.667 90.3333z"/>
<path style="fill:#fcc963; stroke:none;" d="M126 90L127 91L126 90M132 90L133 91L132 90z"/>
</svg>
